<?xml version="1.0" encoding="iso-8859-1"?>
<!-- Generator: Adobe Illustrator 19.0.0, SVG Export Plug-In . SVG Version: 6.00 Build 0)  -->
<svg
	version="1.1"
	id="Layer_1"
	xmlns="http://www.w3.org/2000/svg"
	xmlns:xlink="http://www.w3.org/1999/xlink"
	x="0px"
	y="0px"
	width="54"
	height="54"
	fill="#3993FF"
	viewBox="0 0 540 540"
	style="enable-background:new 0 0 213.563 213.563;"
	xml:space="preserve">
<g>
	<g>
		<g>
			<path d="M339.35,285.235l-81.195-79.966c-0.93-0.768-3.26-0.777-4.642,0.418l-81.869,79.505
				c-8.866,9.276-28.134,34.159-10.948,59.947c8.67,13.005,18.483,20.156,29.175,21.248c18.185,1.801,34.347-13.875,34.509-14.037
				l14.524-14.345l0.026,20.395c0,17.587-3.78,38.707-6.4,51.2h46.942c-2.611-12.544-6.409-33.758-6.409-51.2v-20.599l14.558,14.549
				c0.341,0.341,16.486,15.992,34.637,14.106c10.65-1.109,20.42-8.269,29.013-21.299
				C368.381,319.283,351.143,296.508,339.35,285.235z"/>
			<polygon points="134.15,102.402 155.978,102.402 145.064,69.651 			"/>
			<path d="M418.133,0H93.867c-14.123,0-25.6,11.486-25.6,25.6v460.8c0,14.123,11.477,25.6,25.6,25.6h324.267
				c14.114,0,25.6-11.477,25.6-25.6V25.6C443.733,11.486,432.248,0,418.133,0z M119.023,147.772
				c-1.485,4.463-6.306,6.886-10.795,5.385c-4.471-1.476-6.886-6.315-5.393-10.786l34.133-102.4c1.161-3.482,4.42-5.837,8.098-5.837
				c3.669,0,6.929,2.355,8.09,5.837l34.133,102.4c1.493,4.471-0.922,9.31-5.393,10.786c-0.896,0.307-1.809,0.444-2.697,0.444
				c-3.576,0-6.912-2.253-8.098-5.828l-9.438-28.305h-33.203L119.023,147.772z M365.517,354.577
				c-11.588,17.536-25.6,27.247-41.634,28.868c-12.689,1.246-24.098-2.859-32.674-7.595c1.818,16.375,5.393,32.555,6.741,38.306
				c0.717,3.038,0.008,6.187-1.929,8.627c-1.954,2.466-4.89,3.883-8.055,3.883h-63.94c-3.166,0-6.101-1.417-8.055-3.883
				c-1.937-2.44-2.637-5.589-1.929-8.636c1.348-5.726,4.941-21.871,6.75-38.332c-8.533,4.71-19.925,8.806-32.512,7.561
				c-16.051-1.596-30.114-11.273-41.788-28.774c-16.666-25.011-11.793-55.45,13.039-81.434l82.509-80.111
				c8.175-6.972,19.874-6.972,27.639-0.375l81.553,80.299C377.378,297.967,382.754,328.499,365.517,354.577z"/>
		</g>
	</g>
</g>
<g>
</g>
<g>
</g>
<g>
</g>
<g>
</g>
<g>
</g>
<g>
</g>
<g>
</g>
<g>
</g>
<g>
</g>
<g>
</g>
<g>
</g>
<g>
</g>
<g>
</g>
<g>
</g>
<g>
</g>
</svg>
